<svg xmlns="http://www.w3.org/2000/svg" viewBox="0 0 16 20" shape-rendering="crispEdges">
  <!-- cabelo -->
  <rect x="4" y="1" width="8" height="1" fill="#8b4513"/>
  <rect x="3" y="2" width="10" height="5" fill="#8b4513"/>
  <rect x="2" y="4" width="2" height="4" fill="#8b4513"/>
  <rect x="12" y="4" width="2" height="4" fill="#8b4513"/>
  <!-- rosto -->
  <rect x="5" y="2" width="6" height="5" fill="#f5cba7"/>
  <!-- olhos -->
  <rect x="6" y="3" width="1" height="1" fill="#1a1209"/>
  <rect x="9" y="3" width="1" height="1" fill="#1a1209"/>
  <!-- cílios -->
  <rect x="6" y="2" width="2" height="1" fill="#1a1209"/>
  <rect x="9" y="2" width="2" height="1" fill="#1a1209"/>
  <!-- boca -->
  <rect x="7" y="6" width="2" height="1" fill="#c0392b"/>
  <!-- tiara -->
  <rect x="5" y="1" width="6" height="1" fill="#c8960c"/>
  <rect x="7" y="0" width="2" height="1" fill="#c8960c"/>
  <rect x="8" y="0" width="1" height="1" fill="#e8f0ff"/>
  <!-- vestido roxo -->
  <rect x="4" y="7" width="8" height="8" fill="#6a0dad"/>
  <!-- decote -->
  <rect x="6" y="7" width="4" height="2" fill="#f5cba7"/>
  <!-- detalhes vestido -->
  <rect x="4" y="11" width="8" height="1" fill="#8b0dcc"/>
  <!-- braco esq -->
  <rect x="2" y="7" width="2" height="6" fill="#6a0dad"/>
  <!-- braco dir -->
  <rect x="12" y="7" width="2" height="6" fill="#6a0dad"/>
  <!-- maos -->
  <rect x="1" y="12" width="2" height="2" fill="#f5cba7"/>
  <rect x="13" y="12" width="2" height="2" fill="#f5cba7"/>
  <!-- leque na mao dir -->
  <rect x="14" y="10" width="2" height="3" fill="#c8960c"/>
  <!-- saia larga -->
  <rect x="2" y="15" width="12" height="4" fill="#7b0ddd"/>
  <!-- sapatos -->
  <rect x="5" y="19" width="2" height="1" fill="#2c2c2c"/>
  <rect x="9" y="19" width="2" height="1" fill="#2c2c2c"/>
</svg>
